ply
format ascii 1.0
element vertex 16
property float32 x
property float32 y
property float32 z
element material 0
element face 32
property list uint8 int32 vertex_indices
end_header
1.999999994950485e-006 0 -15 
-15 0 -9.999999974752427e-007 
-9.999999974752427e-007 0 15 
15 0 0 
3.000000106112566e-006 5 -20 
-20 5 -1.999999994950485e-006 
-9.999999974752427e-007 5 20 
20 5 0 
3.000000106112566e-006 -0 -25 
-25 -0 -1.999999994950485e-006 
-9.999999974752427e-007 -0 25 
25 -0 0 
3.000000106112566e-006 -5 -20 
-20 -5 -1.999999994950485e-006 
-9.999999974752427e-007 -5 20 
20 -5 0 
3 1 0 5 
3 5 0 4 
3 2 1 6 
3 6 1 5 
3 3 2 7 
3 7 2 6 
3 0 3 4 
3 4 3 7 
3 5 4 9 
3 9 4 8 
3 6 5 10 
3 10 5 9 
3 7 6 11 
3 11 6 10 
3 4 7 8 
3 8 7 11 
3 9 8 13 
3 13 8 12 
3 10 9 14 
3 14 9 13 
3 11 10 15 
3 15 10 14 
3 8 11 12 
3 12 11 15 
3 13 12 1 
3 1 12 0 
3 14 13 2 
3 2 13 1 
3 15 14 3 
3 3 14 2 
3 12 15 0 
3 0 15 3 
